# xmcd CD database file
#
# Track frame offsets:
#	150
#	46897
#	62407
#	96122
#	125092
#	191020
#	219942
#	263422
#
# Disc length: 4012 seconds
#
# Revision: 5
# Processed by: cddbd v1.5PL3 Copyright (c) Steve Scherf et al.
# Submitted via: CDex 1.50beta8
#
DISCID=680faa08
DTITLE=Art Blaky and The Jazz Messengers - In My Prime I
DYEAR=1978
DGENRE=Jazz
TTITLE0=Jody
TTITLE1=No't So Far At All
TTITLE2=1978
TTITLE3=To See Her Face
TTITLE4=Kamal
TTITLE5=People Who Laugh
TTITLE6=Time Will Tell
TTITLE7=Ronnie's A Dynamite Lady
EXTD=YEAR: 1978
EXTT0=
EXTT1=
EXTT2=
EXTT3=
EXTT4=
EXTT5=
EXTT6=
EXTT7=
PLAYORDER=
